<?xml version="1.0" encoding="utf-8"?>
<!-- Generator: Adobe Illustrator 16.0.0, SVG Export Plug-In . SVG Version: 6.00 Build 0)  -->
<!DOCTYPE svg PUBLIC "-//W3C//DTD SVG 1.1//EN" "http://www.w3.org/Graphics/SVG/1.1/DTD/svg11.dtd">
<svg version="1.1" id="Layer_1" xmlns="http://www.w3.org/2000/svg" xmlns:xlink="http://www.w3.org/1999/xlink" x="0px" y="0px"
	 width="32px" height="14.82px" viewBox="15 16.59 32 14.82" enable-background="new 15 16.59 32 14.82" xml:space="preserve">
<path display="none" fill="none" d="M0-7h62v62H0V-7z"/>
<path display="none" fill="#FFFFFF" d="M31.001-7C13.857-7,0,6.856,0,24s13.857,31,31,31S62,41.144,62,24S48.145-7,31.001-7z
	 M31.001,48.801c-13.671,0-24.8-11.13-24.8-24.801c0-13.67,11.129-24.8,24.8-24.8s24.8,11.129,24.8,24.8
	C55.801,37.671,44.672,48.801,31.001,48.801z"/>
<path fill="#FFFFFF" d="M43.238,16.59l-12.239,9.16l-12.24-9.16L15,19.41l16,12L47,19.41L43.238,16.59z"/>
</svg>
